# xmcd CD database file
#
# Track frame offsets:
#	150
#	12784
#	32701
#	59570
#	77150
#	102249
#	125142
#	152487
#	170344
#	186253
#	209245
#
# Disc length: 3034 seconds
#
# Revision: 3
# Processed by: cddbd v1.4PL0 Copyright (c) Steve Scherf et al.
# Submitted via: CDex 1.50
#
DISCID=970bd80b
DTITLE=Mark Powell - Simplemente Celta
DYEAR=2001
DGENRE=New Age
TTITLE0=Drowsy Maggie/The Moon On The Hill
TTITLE1=Fair Isle/The Leaving
TTITLE2=Off To California
TTITLE3=Across The Narrow Seas
TTITLE4=Homecoming
TTITLE5=The Wind From The West
TTITLE6=The Rambling Boys Of Pleasure/Three Aroun Three
TTITLE7=How Can I Live At The Top Of The Mountain?
TTITLE8=The Blue-Eyed Girl/The Dark And Still Water
TTITLE9=Atlantic Shores
TTITLE10=Heartland
EXTD=YEAR: 2001
EXTT0=
EXTT1=
EXTT2=
EXTT3=
EXTT4=
EXTT5=
EXTT6=
EXTT7=
EXTT8=
EXTT9=
EXTT10=
PLAYORDER=
